{"title":"Asteroid: Final Impact (2015) 1080P WEB-DL DD5 1 H 264","uid":13376917,"size":3591665667,"categoryP":"video","categoryS":"hd___movies","magnet":"?xt=urn:btih:da783940b85254e07ee867c2d2bee5450691d80b&amp;dn=Asteroid%3A+Final+Impact+%282015%29+1080P+WEB-DL+DD5+1+H+264&amp;tr=udp%3A%2F%2Ftracker.leechers-paradise.org%3A6969&amp;tr=udp%3A%2F%2Fzer0day.ch%3A1337&amp;tr=udp%3A%2F%2Fopen.demonii.com%3A1337&amp;tr=udp%3A%2F%2Ftracker.coppersurfer.tk%3A6969&amp;tr=udp%3A%2F%2Fexodus.desync.com%3A6969","seeders":0,"leechers":1,"uploader":"jmanwf","files":2,"time":1454220531,"description":"Scientist Steve Thomas is an outcast after whistleblowing on the military for using his asteroid tracking satellite for spying. Discovering a giant asteroid headed at Earth, Steve attempts to save humanity.\r\n\r\n\r\nVideo\r\nID : 2\r\nFormat : AVC\r\nFormat/Info : Advanced Video Codec\r\nFormat profile :   \r\nFormat settings, CABAC : Yes\r\nFormat settings, ReFrames : 4 frames\r\nCodec ID : avc1\r\nCodec ID/Info : Advanced Video Coding\r\nDuration : 1h 26mn\r\nBit rate : 5 032 Kbps\r\nWidth : 1 904 pixels\r\nHeight : 1 064 pixels\r\nDisplay aspect ratio : 16:9\r\nFrame rate mode : Constant\r\nFrame rate : 23.976 fps\r\nColor space : YUV\r\nChroma subsampling : 4:2:0\r\nBit depth : 8 bits\r\nScan type : Progressive\r\nBits/(Pixel*Frame) : 0.104\r\nStream size : 3.03 GiB (91%)\r\nLanguage : English\r\nEncoded date : UTC 2016-01-30 06:14:21\r\nTagged date : UTC 2016-01-30 06:22:04\r\nColor range : Limited\r\nColor primaries : BT.709\r\nTransfer characteristics : BT.709\r\nMatrix coefficients : BT.709\r\n\r\nAudio #1\r\nID : 1\r\nFormat : AAC\r\nFormat/Info : Advanced Audio Codec\r\nFormat profile : LC\r\nCodec ID : 40\r\nDuration : 1h 26mn\r\nBit rate mode : Variable\r\nBit rate : 126 Kbps\r\nMaximum bit rate : 181 Kbps\r\nChannel(s) : 2 channels\r\nChannel positions : Front: L R\r\nSampling rate : 48.0 KHz\r\nCompression mode : Lossy\r\nStream size : 77.6 MiB (2%)\r\nLanguage : English\r\nEncoded date : UTC 2016-01-30 06:14:21\r\nTagged date : UTC 2016-01-30 06:22:04\r\n\r\nAudio #2\r\nID : 3\r\nFormat : AC-3\r\nFormat/Info : Audio Coding 3\r\nMode extension : CM (complete main)\r\nFormat settings, Endianness : Big\r\nCodec ID : ac-3\r\nDuration : 1h 26mn\r\nBit rate mode : Constant\r\nBit rate : 384 Kbps\r\nChannel(s) : 6 channels\r\nChannel positions : Front: L C R, Side: L R, LFE\r\nSampling rate : 48.0 KHz\r\nBit depth : 16 bits\r\nCompression mode : Lossy\r\nStream size : 237 MiB (7%)\r\nLanguage : English\r\nEncoded date : UTC 2016-01-30 06:14:21\r\nTagged date : UTC 2016-01-30 06:22:04\r\n\r\nText\r\nID : 4-CC1\r\nFormat : EIA-608\r\nMuxing mode : Final Cut\r\nCodec ID : c608\r\nDuration : 1h 25mn\r\nBit rate mode : Constant\r\nStream size : 0.00 Byte (0%)\r\nLanguage : English\r\nEncoded date : UTC 2016-01-30 06:14:21\r\nTagged date : UTC 2016-01-30 06:14:32\r\n\r\nMenu\r\nID : 5\r\nCodec ID : text\r\nDuration : 1h 26mn\r\nEncoded date : UTC 2016-01-30 06:14:23\r\nTagged date : UTC 2016-01-30 06:14:23\r\n00:00:00.000 : Chapter 1\r\n00:10:53.000 : Chapter 2\r\n00:19:49.000 : Chapter 3\r\n00:29:56.000 : Chapter 4\r\n00:40:36.000 : Chapter 5\r\n00:48:07.000 : Chapter 6\r\n01:00:38.000 : Chapter 7\r\n01:10:01.000 : Chapter 8\r\n01:21:06.000 : Chapter 9\r\n01:25:50.000 : Chapter 10\r\nBit rate mode : VBR\r\n\r\n \nhttps://itunes.apple.com/us/movie/asteroid-final-impact/id1062474190\r\n\r\n\r\n\r\n \nhttp://s13.postimg.org/nolyq73mf/image.jpg\r\n\r\n\r\n \nhttp://s13.postimg.org/4ksn9uqs7/image.jpg","torrent":{"xt":"urn:btih:da783940b85254e07ee867c2d2bee5450691d80b","amp;dn":"Asteroid%3A+Final+Impact+%282015%29+1080P+WEB-DL+DD5+1+H+264","amp;tr":["udp%3A%2F%2Ftracker.leechers-paradise.org%3A6969","udp%3A%2F%2Fzer0day.ch%3A1337","udp%3A%2F%2Fopen.demonii.com%3A1337","udp%3A%2F%2Ftracker.coppersurfer.tk%3A6969","udp%3A%2F%2Fexodus.desync.com%3A6969"],"infoHash":"da783940b85254e07ee867c2d2bee5450691d80b","infoHashBuffer":{"type":"Buffer","data":[218,120,57,64,184,82,84,224,126,232,103,194,210,190,229,69,6,145,216,11]},"announce":[],"urlList":[]}}